<?xml version="1.0" encoding="utf-8"?>
<!-- Generator: Adobe Illustrator 15.0.0, SVG Export Plug-In . SVG Version: 6.00 Build 0)  -->
<!DOCTYPE svg PUBLIC "-//W3C//DTD SVG 1.1//EN" "http://www.w3.org/Graphics/SVG/1.1/DTD/svg11.dtd">
<svg version="1.1"
	 id="svg2" xmlns:inkscape="http://www.inkscape.org/namespaces/inkscape" xmlns:sodipodi="http://sodipodi.sourceforge.net/DTD/sodipodi-0.dtd" xmlns:dc="http://purl.org/dc/elements/1.1/" xmlns:rdf="http://www.w3.org/1999/02/22-rdf-syntax-ns#" xmlns:svg="http://www.w3.org/2000/svg" xmlns:cc="http://creativecommons.org/ns#" sodipodi:docname="ZTE_logo.svg" inkscape:version="0.91 r13725"
	 xmlns="http://www.w3.org/2000/svg" xmlns:xlink="http://www.w3.org/1999/xlink" x="0px" y="0px" width="320px" height="154.64px"
	 viewBox="0 0 320 154.64" enable-background="new 0 0 320 154.64" xml:space="preserve">
<sodipodi:namedview  inkscape:current-layer="layer1" fit-margin-right="0" inkscape:window-width="1600" inkscape:cy="1013.2286" fit-margin-top="0" fit-margin-left="0" fit-margin-bottom="0" inkscape:cx="924.96213" id="base" inkscape:window-height="837" inkscape:window-x="-8" showgrid="false" inkscape:document-units="px" pagecolor="#ffffff" bordercolor="#666666" borderopacity="1.0" inkscape:pageopacity="0.0" inkscape:pageshadow="2" inkscape:zoom="0.175" inkscape:window-y="-8" inkscape:window-maximized="1">
	</sodipodi:namedview>
<g id="layer1" transform="translate(1198.5336,-1795.3029)" inkscape:groupmode="layer" inkscape:label="Ebene 1">
	<path id="path3722" inkscape:connector-curvature="0" fill="#00BFFE" d="M-1141.606,1929.838c-2.339-0.297-4.474-1.747-5.563-3.778
		c-1.049-1.956-1.149-4.335-0.266-6.282c0.158-0.346,7.633-11.931,16.613-25.744s19.641-30.213,23.691-36.442
		c4.049-6.23,7.488-11.63,7.641-11.999c0.566-1.365,0.44-3.052-0.326-4.364c-0.41-0.702-1.401-1.652-2.078-1.99
		c-1.212-0.606-0.499-0.584-18.821-0.586c-18.968,0-17.842,0.044-19.621-0.814c-3.114-1.504-4.766-5.197-3.787-8.463
		c0.548-1.828,2.104-3.668,3.783-4.477c1.746-0.841-0.923-0.78,32.547-0.747l30.107,0.029l0.759,0.255
		c2.264,0.758,4.113,2.593,4.821,4.78c0.207,0.643,0.259,1.073,0.259,2.174c0,1.5-0.23,2.447-0.848,3.49
		c-0.168,0.284-10.92,16.837-23.893,36.786c-12.974,19.949-23.69,36.496-23.814,36.771c-0.294,0.651-0.395,2.083-0.204,2.888
		c0.364,1.532,1.437,2.83,2.908,3.519l0.889,0.416l19.328,0.059c21.596,0.066,19.771-0.008,21.605,0.885
		c1.159,0.564,2.458,1.821,3.07,2.97c1.808,3.394,0.784,7.411-2.424,9.514c-0.989,0.647-1.963,0.999-3.216,1.158
		C-1079.525,1929.979-1140.526,1929.975-1141.606,1929.838L-1141.606,1929.838z M-981.959,1929.79
		c-0.955-0.17-2.329-0.767-3.101-1.343c-0.793-0.593-1.683-1.659-2.124-2.544c-0.824-1.653-0.759,2.815-0.726-49.152l0.03-46.964
		l0.318-0.855c0.396-1.066,1.204-2.237,2.062-2.99c0.787-0.692,2.485-1.527,3.451-1.696c0.475-0.083,8.605-0.122,25.878-0.122
		c24.698,0,25.202,0.005,26.087,0.226c1.367,0.342,2.209,0.832,3.347,1.943c0.765,0.748,1.099,1.178,1.423,1.835
		c0.859,1.738,0.998,3.756,0.382,5.555c-0.392,1.145-0.765,1.755-1.613,2.645c-0.884,0.925-1.882,1.564-3.06,1.957l-0.934,0.312
		l-17.343,0.058c-16.427,0.055-17.376,0.07-17.984,0.269c-2.579,0.844-4.613,2.939-5.193,5.35
		c-0.261,1.084-0.262,18.677-0.002,19.76c0.626,2.601,2.785,4.722,5.499,5.402c0.872,0.218,1.353,0.226,14.867,0.228
		c15.604,0,14.829-0.036,16.59,0.814c1.776,0.857,3.218,2.561,3.813,4.504c0.338,1.102,0.288,3.063-0.108,4.233
		c-0.72,2.129-2.561,3.936-4.753,4.667l-0.759,0.253l-14.598,0.057l-14.599,0.058l-1.006,0.354
		c-1.973,0.691-3.462,1.953-4.313,3.651c-0.843,1.684-0.812,1.231-0.812,11.506c0,8.746,0.012,9.27,0.227,10.091
		c0.68,2.604,2.654,4.532,5.438,5.307c0.647,0.181,1.944,0.193,17.051,0.166c11.673-0.021,16.646,0.008,17.39,0.101
		c3.259,0.407,5.783,2.666,6.426,5.75c0.231,1.111,0.231,1.817,0.001,2.912c-0.552,2.616-2.386,4.634-5.005,5.504l-0.943,0.313
		l-25.226,0.019C-976.45,1929.939-981.262,1929.914-981.959,1929.79L-981.959,1929.79z M-1031.381,1929.768
		c-0.639-0.106-1.85-0.542-2.568-0.925c-1.002-0.536-2.629-2.13-3.184-3.116c-0.229-0.408-0.539-1.104-0.689-1.545l-0.273-0.801
		l-0.061-39.303c-0.055-35.778-0.077-39.356-0.249-39.894c-0.833-2.603-2.448-4.286-4.946-5.15l-0.933-0.323l-7.941-0.062
		c-7.266-0.057-7.997-0.08-8.584-0.271c-2.635-0.854-4.565-2.884-5.143-5.404c-0.181-0.789-0.147-2.62,0.062-3.417
		c0.6-2.292,2.349-4.158,4.73-5.05l0.876-0.328l29.955-0.033c21.132-0.022,30.179,0.006,30.714,0.092
		c1.022,0.167,2.693,0.978,3.527,1.71c0.876,0.77,1.732,2.042,2.085,3.099c0.246,0.735,0.285,1.065,0.283,2.397
		c-0.002,1.322-0.041,1.652-0.273,2.289c-0.78,2.145-2.579,3.869-4.805,4.605c-0.743,0.246-0.923,0.253-8.7,0.316
		c-8.838,0.073-8.349,0.029-10.035,0.893c-1.673,0.857-3.035,2.485-3.702,4.427c-0.13,0.379-0.168,7.225-0.218,39.761
		c-0.057,37.307-0.07,39.338-0.268,39.989c-0.908,2.987-3.138,5.18-5.994,5.896c-0.851,0.213-2.786,0.29-3.666,0.146V1929.768z"/>
</g>
</svg>
