<?xml version="1.0" encoding="utf-8"?>
<!-- Generator: Adobe Illustrator 15.0.0, SVG Export Plug-In . SVG Version: 6.00 Build 0)  -->
<!DOCTYPE svg PUBLIC "-//W3C//DTD SVG 1.1//EN" "http://www.w3.org/Graphics/SVG/1.1/DTD/svg11.dtd">
<svg version="1.1" id="Layer_1" xmlns="http://www.w3.org/2000/svg" xmlns:xlink="http://www.w3.org/1999/xlink" x="0px" y="0px"
	 width="612px" height="137px" viewBox="0 0 612 137" enable-background="new 0 0 612 137" xml:space="preserve">
<path fill="#1569B3" d="M556.619,56.303c-5.109,1.487-8.239,15.619,0.815,19.494l20.182,0.052c3.062-0.452,2.912-6.38,0.021-6.17
	l-12.17,0.005c-4.466-0.132-4.609-7.567-0.064-7.91l11.146,0.001l1.684,0.029c10.71,0.357,10.368,21.162,1.014,22.156l-1.859,0.002
	l-20.84,0.017c-0.979-0.065-3.01-0.886-4.164-1.78c-12.006-9.297-8.774-26.096-0.111-32.053c0.87-0.599,2.233-1.864,4.565-1.955
	h32.982v-9.443c0-6.049-4.936-10.999-10.97-10.999h-39.721c-6.033,0-10.969,4.95-10.969,10.999v39.828
	c0,6.049,4.936,10.998,10.969,10.998h39.721c6.034,0,10.97-4.949,10.97-10.998V56.303H556.619z M545.98,35.61
	c0-0.867,0.622-1.577,1.385-1.577h37.163c0.762,0,1.384,0.71,1.384,1.577v5.199c0,0.867-0.622,1.577-1.384,1.577h-37.163
	c-0.763,0-1.385-0.709-1.385-1.577V35.61z M533.896,56.241c-4.138-0.649-3.774-7.605,0-8.068h15.296
	c-2.698,1.692-4.77,4.295-6.009,8.108L533.896,56.241z"/>
<g>
	<path fill="#1569B3" d="M311.427,88.06l18.253,0.004c2.043-12.843,4.085-25.879,6.128-38.722c0.444-2.612,1.578-3.724,2.691-4.581
		c1.098-0.844,2.279-1.272,3.919-1.307l13.083,0.008l6.517-11.07c-8.183,0-16.383,0.006-24.565,0.006
		c-3.647,0.053-8.94,1.504-13.09,4.955c-3.663,3.045-6.09,7.561-6.729,11.731L311.427,88.06L311.427,88.06z M38.836,32.388
		l-1.762,11.069l10.028,6.829L34.96,56.729l-4.98,31.336l18.217-0.006l8.876-55.672L38.836,32.388L38.836,32.388z M64.483,32.397
		l39.974-0.014c6.667,0.047,14.151,6.128,13.239,15.295c-2.094,13.439-4.219,26.948-6.372,40.385l-18.215,0.001l6.169-38.802
		c0.335-1.921-0.178-3.307-0.998-4.261c-0.874-1.018-2.113-1.541-3.62-1.541c-4.737,0.001-8.987-0.013-13.725-0.011L73.86,88.068
		l-18.225,0.001L64.483,32.397L64.483,32.397z M120.525,76.988l-1.749,11.057c13.815,0.009,26.916-0.004,40.73,0.005
		c3.993,0.015,8.492-1.632,11.782-4.26c2.357-1.882,4.161-4.076,5.5-6.718c0.94-1.854,1.664-4.132,1.92-6.141
		c0.259-2.026,0.192-3.753-0.159-5.468c-0.618-3.017-2.087-5.375-4.031-7.198c-2.388-2.24-5.615-3.596-8.855-3.611
		c-6.338,0.017-13.122-0.006-19.46,0.009c-3.127-0.017-4.738-2.843-4.639-4.67c0.062-1.141,0.381-2.248,0.944-3.217
		c1.123-1.931,3.132-3.312,5.433-3.32l33.616,0.007l1.784-11.089c-13.944,0.011-26.586,0.006-40.532,0.018
		c-6.465,0.019-13.244,3.639-16.783,9.713c-1.4,2.403-2.534,5.312-2.682,8.21c-0.13,2.536,0.103,4.859,0.927,6.887
		c2.106,5.18,6.946,8.523,12.603,8.532c6.539,0.004,12.457-0.008,18.995-0.005c1.248-0.002,2.333,0.401,3.102,1.096
		c1.199,1.082,1.712,2.876,1.522,4.227c-0.214,1.517-0.998,3.027-2.158,4.153c-1.056,1.025-2.412,1.733-4.169,1.743L120.525,76.988
		L120.525,76.988z M190.789,32.377l41.63-0.032c5.804-0.009,8.821,2.081,11.201,4.644c1.148,1.236,2.104,2.771,2.733,4.588
		c0.692,1.995,0.983,4.329,0.548,6.976c-1.219,7.977-2.486,15.496-3.755,23.472c-0.882,4.65-3.262,8.16-6.211,10.896
		c-1.357,1.26-2.934,2.298-4.678,3.158c-2.6,1.281-5.83,1.974-8.564,1.988c-5.431-0.002-10.111-0.002-15.542-0.003
		c-3.155,0.006-5.666-0.382-7.819-1.3c-1.018,6.916-2.028,13.834-3.045,20.748l-19.383,6.145l9.074-56.972l12.099-6.403
		l-10.099-6.843L190.789,32.377L190.789,32.377z M207.237,43.452l-5.325,33.499c5.663,0.043,11.041,0.01,16.599-0.002
		c0.646,0,1.291-0.062,1.866-0.227c0.84-0.243,1.567-0.677,2.22-1.188c1.327-1.038,2.222-2.521,2.505-4.013
		c1.153-7.224,2.297-14.446,3.45-21.669c0.206-1.177,0.273-2.318-0.039-3.303c-0.188-0.59-0.527-1.125-0.899-1.578
		c-0.77-0.939-1.93-1.526-3.474-1.533L207.237,43.452L207.237,43.452z M256.964,32.381l18.253,0.002l-5.978,37.329
		c-0.55,3.129-0.327,4.223,0.593,5.469c0.771,1.044,2.154,1.746,3.709,1.759c4.592-0.001,9.237,0.023,13.828,0.021l7.081-44.556
		l18.232-0.017l-8.86,55.686l-39.468-0.005c-4.575-0.013-8.475-2.182-10.854-5.22c-2.109-2.691-3.628-6.353-2.634-12.06
		C252.952,57.9,254.879,45.275,256.964,32.381z"/>
	<path fill="#1569B3" d="M377.422,28.771c4.614,2.015,10.434,5.184,15.516,8.633c-0.03,3.377,0.01,5.976-0.007,9.431
		c-5.45-3.666-10.592-6.394-15.515-8.583C377.397,35.143,377.441,31.878,377.422,28.771L377.422,28.771z M466.523,32.359l7.519-0.01
		l0.013-3.531l7.375,0.016l-0.012,3.515l7.506-0.004l-0.03,5.355l-7.456,0.025l-0.019,4.197c1.109,0,1.745-0.003,2.854-0.003
		c0.955,0.012,2.317,0.474,3.121,1.221c0.855,0.796,1.566,2.155,1.546,3.577l-0.015,21.3l-7.528-0.026l0.02,5.312l7.501-0.004
		l0.003,5.229l-7.476,0.002l-0.002,6.799l-7.406,2.706l0.011-9.534l-7.504-0.01l0.012-5.191l7.514,0.008l-0.022-5.3l-7.492,0.021
		l-0.048-26.171l7.529,0.01l0.004-4.157l-7.515,0.007L466.523,32.359L466.523,32.359z M473.895,47.112l-0.009,5.271l7.612-0.014
		l-0.001-5.263L473.895,47.112L473.895,47.112z M473.893,57.595l0.013,5.227h7.607l0.006-5.231L473.893,57.595L473.893,57.595z
		 M492.648,37.679l0.004-5.31c5.5-0.022,10.604,0.033,16.105,0.012c1.048,0.017,2.147,0.478,2.967,1.212
		c0.99,0.887,1.602,2.192,1.601,3.85c-0.006,7.286-0.029,14.445-0.017,21.599c0.013,7.857,0.058,15.708,0.009,23.711
		c-0.015,1.353-0.72,2.862-1.65,3.739c-0.989,0.933-2.345,1.576-3.577,1.571l-5.977-0.005l0.019-5.227
		c0.941-0.005,1.103,0.021,2.044,0.016c1.072,0.004,1.744-0.822,1.757-1.681l0.007-14.307c-1.824,0.001-4.141,0.004-5.965,0.005
		c-0.066,4.035-0.211,7.696-0.361,11.45c-0.092,2.252-0.161,4.539-0.287,6.96c-2.562,0.899-4.962,1.832-7.524,2.734
		c0.532-9.365,0.679-18.484,0.77-27.638c0.066-6.841,0.148-13.701,0.088-20.699l7.377,0.02l0.006,7.393l5.879,0.019l-0.003-9.433
		L492.648,37.679L492.648,37.679z M500.023,52.273l-0.024,9.396l5.911-0.015l0.016-9.382L500.023,52.273L500.023,52.273z
		 M447.316,41.993c4.064,1.715,10.922,5.432,15.495,8.524c0.03,3.378-0.037,6.084-0.007,9.461
		c-4.777-3.268-11.046-6.565-15.504-8.565C447.312,48.306,447.306,45.101,447.316,41.993L447.316,41.993z M447.345,28.79
		c-0.022,3.107,0.01,6.384-0.008,9.493c4.062,1.756,10.442,5.01,15.492,8.594c-0.021-3.378,0.013-6.107-0.008-9.484
		C458.154,34.051,451.388,30.619,447.345,28.79L447.345,28.79z M412.221,32.366l0.008-3.529l10.981-0.009l0.008,3.534
		c3.625,0,6.598,0.029,10.225,0.029c2.538,0.043,5.253,2.291,5.259,5.405c-0.055,5.342,0.088,10.635,0.056,15.977
		c-0.011,3.436-2.932,5.471-5.344,5.474l-25.759,0.021l-0.013,2.423c2.688,0,4.713,0.004,7.401,0.004
		c2.035,2.428,4.305,4.753,6.31,6.742c2.553-2.436,4.202-4.053,6.523-6.756l11.203,0.001c-3.261,4.612-7.494,8.932-11.41,12.695
		c4.965,4.441,10.471,9.005,15.771,13.668c-4.877,0-9.618-0.051-14.496-0.051c-7.022-6.709-14.343-14.201-21.32-22.339
		c-0.014,5.454-0.063,10.144,0.001,15.521c-0.031,1.007,0.856,1.676,2.058,1.649l6.521-0.006l-1.947,5.258
		c-4.189,0-7.921,0.008-12.109,0.008c-2.283-0.023-5.458-1.896-5.447-5.517l-0.034-50.198L412.221,32.366L412.221,32.366z
		 M407.67,37.724l-0.008,5.515l17.12,0.006l-1.908,5.221l-15.23,0.001l0.01,5.44c6.263,0,12.265,0.033,18.527,0.033
		c0.729-0.014,1.628-0.519,1.631-1.731c-0.017-4.615-0.045-8.335-0.032-12.951c-0.005-0.837-0.803-1.532-1.694-1.527L407.67,37.724
		L407.67,37.724z M462.784,61.98c0.015,4.507,0.014,9.113,0.01,13.317c-1.788,1.811-3.569,3.48-5.346,5.034
		c-3.353,2.932-6.685,5.452-10.021,7.692c-0.009-4.152-0.021-7.672-0.021-11.448c1.115-0.799,2.282-1.607,3.382-2.482
		C455.008,70.732,459.032,66.693,462.784,61.98L462.784,61.98z M392.927,61.981c-0.016,5.101,0.037,8.967,0.025,13.302
		c-5.696,5.525-9.018,8.581-15.522,12.811c-0.003-4.236-0.05-7.562-0.032-11.481C383.325,72.48,387.137,68.919,392.927,61.981
		L392.927,61.981z M377.414,41.993c-0.059,3.108-0.006,6.316-0.013,9.426c4.856,2.237,10.09,4.92,15.519,8.625
		c-0.008-3.378-0.003-6.107,0.015-9.485C387.524,46.997,382.329,44.115,377.414,41.993z"/>
</g>
</svg>
