<?xml version="1.0" encoding="utf-8"?>
<!-- Generator: Adobe Illustrator 15.0.0, SVG Export Plug-In . SVG Version: 6.00 Build 0)  -->
<!DOCTYPE svg PUBLIC "-//W3C//DTD SVG 1.1//EN" "http://www.w3.org/Graphics/SVG/1.1/DTD/svg11.dtd">
<svg version="1.1" id="Layer_1" xmlns="http://www.w3.org/2000/svg" xmlns:xlink="http://www.w3.org/1999/xlink" x="0px" y="0px"
	 width="612px" height="137px" viewBox="0 0 612 137" enable-background="new 0 0 612 137" xml:space="preserve">
<title>Ericsson logo</title>
<path fill="#00285E" d="M293.153,41.912c-3.866,1.423-8.153-0.557-9.576-4.423c-1.423-3.865,0.557-8.152,4.422-9.575
	c0.007-0.002,0.015-0.005,0.022-0.008L328.9,12.974c3.806-1.452,8.066,0.457,9.519,4.262c0.022,0.061,0.045,0.121,0.065,0.182
	c1.396,3.71-0.48,7.851-4.19,9.247c-0.082,0.031-0.164,0.06-0.248,0.088L293.153,41.912z"/>
<path fill="#00285E" d="M293.153,64.073c-3.867,1.42-8.152-0.564-9.571-4.431c-1.419-3.867,0.564-8.152,4.432-9.572
	c0.003-0.001,0.006-0.002,0.009-0.003L328.9,35.152c3.785-1.463,8.04,0.42,9.502,4.206c0.029,0.074,0.057,0.147,0.082,0.222
	c1.399,3.701-0.469,7.835-4.171,9.233c-0.088,0.034-0.178,0.065-0.268,0.095L293.153,64.073z"/>
<path fill="#00285E" d="M293.153,86.231c-3.864,1.427-8.153-0.549-9.58-4.413s0.549-8.153,4.413-9.579
	c0.012-0.004,0.024-0.009,0.036-0.014L328.9,57.312c3.783-1.465,8.038,0.415,9.502,4.198c0.029,0.074,0.056,0.149,0.082,0.225
	c1.399,3.703-0.469,7.838-4.172,9.236c-0.088,0.033-0.177,0.065-0.267,0.095L293.153,86.231z"/>
<polygon fill="#00285E" points="248.057,104.661 261.611,104.661 261.611,108.39 252.742,108.39 252.742,111.423 261.377,111.423 
	261.377,115.382 252.742,115.382 252.742,118.648 261.842,118.648 261.842,122.627 248.057,122.627 "/>
<rect x="283.104" y="104.661" fill="#00285E" width="4.918" height="17.966"/>
<path fill="#00285E" d="M305.778,105.124l-0.233,3.729c-3.969-2.085-10.049-1.391-10.049,4.444
	c-0.233,6.065,6.08,6.992,10.282,4.887l0.231,3.961c-7.241,2.105-15.665,0-15.665-8.848
	C290.345,104.893,299,102.556,305.778,105.124z"/>
<path fill="#00285E" d="M320.261,104.893l-0.231,3.729c-2.576-1.391-7.242-1.391-7.242,0.696c0,3.265,8.403,0.945,8.403,7.708
	c0,6.529-7.938,6.761-13.09,5.119l0.252-3.961c3.254,1.411,7.939,1.874,7.939-0.694c0-3.034-8.423-1.392-8.423-7.709
	C307.869,104.429,314.414,103.019,320.261,104.893z"/>
<path fill="#00285E" d="M334.976,104.893l-0.229,3.729c-2.573-1.391-7.248-1.391-7.248,0.696c0,3.265,8.405,0.945,8.405,7.708
	c0,6.529-7.934,6.761-13.068,5.119l0.233-3.961c3.273,1.411,7.94,1.874,7.94-0.694c0-3.034-8.405-1.392-8.405-7.709
	C322.604,104.429,329.129,103.019,334.976,104.893z"/>
<polygon fill="#00285E" points="357.655,104.661 363.714,104.661 369.56,116.098 369.56,104.661 374.226,104.661 374.226,122.627 
	368.396,122.627 362.084,110.728 362.084,122.627 357.655,122.627 "/>
<path fill="#00285E" d="M342.451,113.528c0,2.801,1.18,5.834,3.737,5.834c2.81,0,3.966-3.033,3.966-5.834
	c0-2.337-1.156-5.834-3.966-5.834C343.631,107.695,342.451,110.727,342.451,113.528z M346.188,104.197
	c5.155,0,9.121,2.802,9.121,9.331c0,6.298-3.966,9.331-9.121,9.331c-4.901,0-8.868-3.033-8.868-9.331
	C337.32,106.999,341.287,104.197,346.188,104.197L346.188,104.197z"/>
<path fill="#00285E" d="M265.348,104.661h8.655c2.556,0,5.828,0.928,5.828,4.656c0.129,2.077-1.249,3.95-3.272,4.442
	c0.778,0.244,1.391,0.849,1.646,1.623c0,0.231,2.575,7.013,2.575,7.244h-5.15l-1.859-5.602c-0.253-0.696-0.907-1.164-1.646-1.18
	c-0.93,0-2.092-0.231-2.092,0v6.781h-4.686V104.661z M270.033,112.118h2.556c1.177,0.112,2.222-0.751,2.334-1.929
	c0.005-0.052,0.008-0.105,0.009-0.158c0-1.179-0.929-1.874-2.343-1.874h-2.556V112.118z"/>
</svg>
