<?xml version="1.0" encoding="utf-8"?>
<!-- Generator: Adobe Illustrator 15.0.0, SVG Export Plug-In . SVG Version: 6.00 Build 0)  -->
<!DOCTYPE svg PUBLIC "-//W3C//DTD SVG 1.1//EN" "http://www.w3.org/Graphics/SVG/1.1/DTD/svg11.dtd">
<svg version="1.1" id="Layer_1" xmlns="http://www.w3.org/2000/svg" xmlns:xlink="http://www.w3.org/1999/xlink" x="0px" y="0px"
	 width="800px" height="600px" viewBox="0 0 800 600" enable-background="new 0 0 800 600" xml:space="preserve">
<g>
	<g>
		<g>
			<path fill="#E1002A" d="M183.376,400.124c-17.113-8.007-31.165-14.469-31.165-27.542c0-9.998,7.998-17.271,23.797-17.271
				c5.814,0,10.565,0.689,15.479,1.59c2.568,0.438,5.309,0.819,7.574,0.819c13.797,0,21.588-8.227,26.767-23.843l2.14-6.379
				c-2.203-0.896-24.75-10.797-54.151-10.797c-46.772,0-71.462,29.995-71.448,61.111c0,15.708,4.917,27.076,12.608,36.042
				c9.913,11.524,24.048,19.068,37.273,25.517c19.272,9.453,36.661,16.44,36.661,30.459c0.011,12.434-12.838,19.507-30.021,19.507
				c-23.536,0-44.105-13.457-46.732-15.08l-19.327,36.226c3.438,1.941,28.327,17.744,69.29,17.744
				c43.647-0.032,76.701-25.057,76.701-63.561C238.821,426.347,208.188,412.146,183.376,400.124z"/>
			<path fill="#E1002A" d="M354.104,418.011l79.181-97.081h-56.419l-63.151,83.775h-0.945V320.93h-46.496l0.012,205.652h2.763
				c20.105,0,44.035-9.301,44.035-42.889V436.48h0.945l64.376,87.541h59.175L354.104,418.011z"/>
		</g>
		<g>
			<path fill="#E1002A" d="M435.923,100.64c-16.372,3.091-40.649,17.953-40.567,44.231c0.062,23.864,19.573,38.329,19.635,69.598
				c0.092,23.527-12.87,39.365-26.892,48.149c5.666-0.503,11.871-0.828,18.702-0.844c14.325-0.036,22.957,1.331,23.495,1.417
				l73.444-90.127C483.344,142.526,459.521,118.831,435.923,100.64z"/>
			<path fill="#E1002A" d="M497.612,344.025c9.26-14.391,10.422-37.328,11.207-60.692c0.865-21.792,5.412-38.189,34.565-38.293
				c6.46-0.023,12.614,0.864,23.759,0.835c42.709-0.188,70.596-14.895,87.941-24.547c-35.441-22.597-87.171-45.669-151.349-48.264
				c-4.18,11.797-36.704,102.23-39.161,109.527c0.369,0.439,6.064,6.823,13.178,19.273
				C488.247,318.967,493.881,333.454,497.612,344.025z"/>
		</g>
	</g>
	<g>
		<path fill="#EE7602" d="M342.485,270.16c-3.715,0.024-5.56-2.442-6.065-6.723c-0.472-4.25-18.839-172.299-21.576-197.734
			c-0.395-3.713-1.317-10.53-1.328-12.959c-0.007-3.917,2.542-5.961,5.548-5.969c8.703-0.033,56.135,11.076,106.472,46.354
			c-14.506,4.091-40.738,19.175-40.62,50.408c0.097,27.643,19.891,42.858,19.991,70.592
			C405.058,259.232,353.221,270.141,342.485,270.16z"/>
		<path fill="#EE7602" d="M501.834,356.019c0.789,2.096,1.534,3.851,2.282,5.084c1.155,1.966,2.664,2.854,4.513,2.848
			c1.173-0.017,2.608-0.402,4.193-1.122c3.882-1.781,157.242-73.174,180.373-83.846c3.353-1.61,9.708-4.451,11.805-5.68
			c2.172-1.234,3.165-3.043,3.165-4.881c-0.006-1.027-0.311-2.065-0.89-3.009c-2.893-4.677-17.728-20.425-42.536-37.636
			c-19.699,10.846-50.455,27.617-96.209,27.802c-11.211,0.011-13.749-0.74-21.407-0.71c-22.337,0.08-27.911,9.633-28.726,29.211
			c-0.138,3.7-0.204,8.681-0.417,14.136C517.272,315.72,515.205,339.86,501.834,356.019z"/>
	</g>
</g>
</svg>
