<svg id="svg" version="1.1" width="2400" height="582" xmlns="http://www.w3.org/2000/svg" xmlns:xlink="http://www.w3.org/1999/xlink" style="display: block;"><g id="svgg"><path id="path0" d="M88.905 1.146 C 88.636 1.309,87.104 2.140,85.500 2.995 C 83.896 3.849,80.933 5.462,78.917 6.579 C 76.900 7.697,74.762 8.857,74.167 9.157 C 72.567 9.963,71.667 10.512,71.667 10.683 C 71.667 10.765,71.532 10.833,71.367 10.833 C 71.202 10.833,69.908 11.478,68.492 12.265 C 67.076 13.053,64.979 14.189,63.833 14.790 C 62.688 15.391,61.262 16.160,60.667 16.499 C 60.071 16.839,58.575 17.665,57.342 18.337 C 55.263 19.468,55.130 19.570,55.509 19.729 C 58.028 20.788,63.234 23.566,65.113 24.855 C 65.497 25.118,65.858 25.333,65.916 25.333 C 66.501 25.333,72.279 29.960,75.013 32.618 C 84.305 41.651,88.575 51.987,88.291 64.760 C 88.192 69.202,88.359 70.164,89.007 68.875 C 89.134 68.623,89.572 67.817,89.979 67.083 C 98.161 52.370,100.239 35.748,96.063 18.417 C 94.692 12.726,93.069 8.108,90.695 3.141 C 89.544 0.733,89.559 0.750,88.905 1.146 M11.958 28.606 C 4.874 39.899,1.335 55.523,2.807 69.000 C 2.923 70.054,3.052 71.244,3.095 71.645 C 3.482 75.267,5.416 83.553,6.496 86.215 C 6.578 86.417,6.882 87.221,7.172 88.000 C 8.914 92.684,10.844 97.000,11.197 97.000 C 11.310 97.000,12.613 96.325,14.092 95.500 C 15.572 94.675,16.822 94.000,16.871 94.000 C 16.920 94.000,17.587 93.652,18.355 93.227 C 23.403 90.429,26.324 88.831,27.965 87.972 C 29.000 87.430,29.992 86.841,30.169 86.664 C 30.347 86.487,30.700 86.292,30.954 86.231 C 31.209 86.170,31.492 86.066,31.583 86.000 C 31.825 85.825,37.127 82.933,39.083 81.910 C 41.868 80.454,45.239 78.533,45.293 78.372 C 45.320 78.289,44.835 78.010,44.213 77.753 C 40.112 76.054,34.048 72.370,29.833 69.017 C 17.220 58.980,11.208 45.688,12.488 30.670 C 12.717 27.985,12.610 27.567,11.958 28.606 " stroke="none" fill="#69ae58" fill-rule="evenodd"></path><path id="path1" d="" stroke="none" fill="#5da772" fill-rule="evenodd"></path><path id="path2" d="" stroke="none" fill="#55a184" fill-rule="evenodd"></path><path id="path3" d="M223.833 46.917 L 223.833 79.833 227.917 79.833 L 232.000 79.833 232.000 46.917 L 232.000 14.000 227.917 14.000 L 223.833 14.000 223.833 46.917 M249.456 14.671 C 243.922 16.067,243.765 24.313,249.244 25.772 C 253.547 26.919,257.501 23.189,256.429 18.995 C 255.639 15.901,252.440 13.918,249.456 14.671 M140.779 15.251 C 122.984 18.145,118.772 40.888,134.750 47.803 C 136.587 48.598,138.246 49.188,143.215 50.811 C 153.095 54.038,155.882 56.680,155.441 62.405 C 154.536 74.153,140.123 76.938,128.767 67.558 C 126.758 65.899,125.633 66.386,123.535 69.826 L 122.166 72.069 122.791 72.716 C 132.509 82.772,151.258 83.132,159.270 73.416 C 164.527 67.041,165.350 56.934,161.077 51.239 C 158.425 47.705,154.770 45.680,145.583 42.656 C 135.824 39.444,132.921 36.871,133.210 31.686 C 133.732 22.304,145.312 19.258,155.473 25.830 C 158.742 27.944,159.295 27.749,161.321 23.771 L 162.392 21.668 161.988 21.237 C 157.835 16.811,148.092 14.061,140.779 15.251 M189.750 33.767 C 177.604 34.999,170.613 42.931,170.218 55.926 C 169.969 64.133,171.874 69.835,176.438 74.550 C 183.041 81.371,195.839 82.376,204.500 76.755 C 216.625 68.885,216.113 43.853,203.685 36.885 C 199.337 34.447,194.255 33.310,189.750 33.767 M288.833 33.842 C 285.002 34.314,281.078 36.282,277.701 39.423 C 276.941 40.130,276.297 40.680,276.270 40.646 C 276.243 40.611,276.093 39.536,275.938 38.256 C 275.489 34.551,275.435 34.506,271.458 34.502 L 268.667 34.500 268.667 57.170 L 268.667 79.839 272.708 79.795 L 276.750 79.750 276.785 63.083 L 276.819 46.417 278.246 45.046 C 284.843 38.708,293.948 38.549,297.071 44.717 C 298.336 47.216,298.329 47.104,298.331 64.458 L 298.333 79.833 302.417 79.833 L 306.500 79.833 306.496 65.458 C 306.492 51.022,306.407 48.155,305.908 45.729 C 304.187 37.349,297.598 32.762,288.833 33.842 M334.333 33.764 C 322.135 35.168,315.186 43.354,315.170 56.338 C 315.157 67.163,319.181 74.600,327.079 78.349 C 335.101 82.157,347.594 80.332,353.458 74.496 C 354.722 73.238,354.748 73.560,353.228 71.667 C 351.338 69.311,350.734 69.166,348.474 70.526 C 344.232 73.079,340.358 74.176,336.417 73.941 C 328.430 73.464,323.868 68.103,323.101 58.292 L 323.013 57.167 338.484 57.167 C 356.822 57.167,354.725 57.504,355.070 54.500 C 355.163 53.687,354.851 49.980,354.576 48.632 C 353.943 45.529,352.989 43.387,350.879 40.333 C 347.929 36.062,340.386 33.067,334.333 33.764 M379.500 33.765 C 379.271 33.806,378.371 33.960,377.500 34.108 C 373.343 34.814,369.147 36.933,365.502 40.164 L 364.754 40.827 365.082 41.455 C 367.202 45.511,368.402 45.871,371.907 43.507 C 375.730 40.927,379.434 39.860,382.945 40.328 C 388.315 41.042,390.491 44.610,390.499 52.708 L 390.500 54.333 388.875 54.339 C 372.455 54.395,362.428 60.043,362.703 69.082 C 362.969 77.844,370.811 82.469,380.917 79.823 C 384.033 79.007,389.747 75.622,390.752 73.997 C 390.936 73.698,391.135 73.983,391.248 74.709 C 392.010 79.591,392.098 79.688,395.882 79.801 L 398.347 79.875 398.286 63.562 C 398.220 45.762,398.279 46.895,397.247 43.625 C 395.741 38.858,392.132 35.472,387.167 34.168 C 385.795 33.807,380.765 33.543,379.500 33.765 M246.708 57.125 L 246.750 79.750 250.792 79.795 L 254.833 79.839 254.833 57.170 L 254.833 34.500 250.749 34.500 L 246.665 34.500 246.708 57.125 M339.159 40.023 C 343.999 41.067,347.253 45.161,347.651 50.708 L 347.756 52.167 335.545 52.167 C 328.828 52.167,323.333 52.134,323.333 52.094 C 323.333 50.249,324.955 46.235,326.557 44.114 C 329.161 40.668,334.344 38.985,339.159 40.023 M195.583 40.584 C 201.743 42.261,204.905 47.858,204.903 57.083 C 204.901 67.924,200.751 73.587,192.540 73.954 C 183.458 74.360,178.505 68.436,178.506 57.167 C 178.507 47.381,182.142 41.576,189.040 40.341 C 190.334 40.109,194.393 40.260,195.583 40.584 M390.500 64.060 L 390.500 68.621 389.123 69.935 C 381.924 76.811,371.416 76.308,370.495 69.043 C 369.815 63.682,375.575 60.184,385.833 59.729 C 387.162 59.670,388.281 59.594,388.319 59.561 C 388.358 59.527,388.864 59.500,389.444 59.500 L 390.500 59.500 390.500 64.060 " stroke="none" fill="#58595b" fill-rule="evenodd"></path><path id="path4" d="M33.333 0.597 C 29.356 0.936,28.135 1.072,25.894 1.423 C 20.442 2.277,14.567 3.854,9.686 5.775 C 7.643 6.579,2.713 8.777,2.398 9.024 C 2.204 9.176,2.898 10.656,4.498 13.500 C 5.867 15.935,8.193 20.188,8.961 21.661 C 10.446 24.509,12.310 27.799,12.508 27.921 C 12.595 27.975,12.667 28.119,12.667 28.240 C 12.667 28.360,13.004 29.069,13.416 29.815 C 13.829 30.560,14.551 31.901,15.020 32.793 C 15.490 33.686,16.833 36.142,18.005 38.250 C 19.176 40.358,20.268 42.365,20.432 42.708 C 20.858 43.606,20.877 43.586,22.221 40.792 C 22.894 39.394,23.906 37.474,24.472 36.526 C 25.037 35.578,25.500 34.771,25.500 34.733 C 25.500 34.539,27.339 31.770,28.590 30.079 C 32.141 25.279,35.598 21.681,39.351 18.876 C 48.097 12.340,58.688 9.389,69.281 10.537 C 71.845 10.815,71.943 10.773,70.653 9.953 C 60.665 3.602,44.783 -0.379,33.333 0.597 M79.010 54.750 C 69.801 75.245,54.023 86.538,34.917 86.312 C 29.238 86.244,29.111 86.350,32.614 88.233 C 39.839 92.115,46.405 94.323,54.167 95.478 C 65.995 97.240,79.414 95.560,91.250 90.836 C 93.045 90.120,98.294 87.758,98.466 87.589 C 98.493 87.562,97.886 86.387,97.117 84.978 C 96.348 83.569,95.257 81.554,94.692 80.500 C 94.128 79.446,93.433 78.171,93.148 77.667 C 92.168 75.933,89.709 71.416,89.266 70.536 C 89.022 70.052,88.675 69.508,88.494 69.328 C 88.314 69.147,88.167 68.882,88.167 68.737 C 88.167 68.593,87.428 67.149,86.526 65.529 C 85.623 63.909,84.529 61.908,84.094 61.083 C 82.504 58.068,80.263 54.016,79.978 53.638 L 79.685 53.250 79.010 54.750 " stroke="none" fill="#3c8fba" fill-rule="evenodd"></path></g></svg>