<?xml version="1.0" encoding="utf-8"?>
<!-- Generator: Adobe Illustrator 15.0.0, SVG Export Plug-In . SVG Version: 6.00 Build 0)  -->
<!DOCTYPE svg PUBLIC "-//W3C//DTD SVG 1.1//EN" "http://www.w3.org/Graphics/SVG/1.1/DTD/svg11.dtd">
<svg version="1.1" id="Layer_1" xmlns="http://www.w3.org/2000/svg" xmlns:xlink="http://www.w3.org/1999/xlink" x="0px" y="0px"
	 width="800px" height="600px" viewBox="0 0 800 600" enable-background="new 0 0 800 600" xml:space="preserve">
<g id="svgg">
	<path id="path2" fill="#68AD57" d="M182.612,177.161c-0.53,0.323-3.557,1.964-6.726,3.653c-3.168,1.687-9.021,4.873-13.003,7.079
		c-3.985,2.208-8.207,4.5-9.382,5.093c-3.161,1.592-4.938,2.676-4.938,3.014c0,0.163-0.267,0.296-0.592,0.296
		c-0.326,0-2.882,1.274-5.679,2.829c-2.796,1.557-6.939,3.8-9.203,4.987c-2.262,1.188-5.078,2.707-6.254,3.375
		c-1.178,0.671-4.132,2.303-6.568,3.631c-4.105,2.233-4.369,2.435-3.62,2.749c4.976,2.092,15.259,7.579,18.97,10.125
		c0.759,0.52,1.472,0.944,1.587,0.944c1.155,0,12.568,9.139,17.969,14.39c18.354,17.842,26.789,38.258,26.228,63.489
		c-0.196,8.775,0.134,10.675,1.414,8.129c0.25-0.498,1.116-2.091,1.92-3.539c16.162-29.062,20.266-61.896,12.018-96.13
		c-2.708-11.241-5.915-20.363-10.604-30.174C183.875,176.345,183.904,176.379,182.612,177.161 M30.62,231.402
		c-13.993,22.307-20.983,53.17-18.075,79.789c0.229,2.084,0.483,4.434,0.569,5.225c0.764,7.156,4.584,23.521,6.717,28.78
		c0.163,0.399,0.762,1.987,1.335,3.525c3.441,9.252,7.254,17.778,7.95,17.778c0.224,0,2.797-1.333,5.719-2.963
		c2.923-1.631,5.393-2.963,5.49-2.963c0.096,0,1.414-0.687,2.931-1.528c9.971-5.523,15.741-8.682,18.982-10.377
		c2.045-1.072,4.004-2.235,4.354-2.585c0.352-0.352,1.049-0.735,1.551-0.857c0.503-0.119,1.062-0.324,1.242-0.455
		c0.479-0.346,10.951-6.057,14.814-8.078c5.502-2.876,12.16-6.671,12.267-6.989c0.053-0.163-0.905-0.715-2.134-1.223
		c-8.101-3.354-20.079-10.632-28.404-17.255c-24.914-19.826-36.79-46.083-34.262-75.747C32.119,230.176,31.908,229.35,30.62,231.402
		 M7,174.897 M7,174.897"/>
	<path id="path3" fill="#59595C" d="M449.133,267.572v65.019h8.067h8.065v-65.019v-65.021H457.2h-8.067V267.572 M499.746,203.876
		c-10.932,2.758-11.24,19.046-0.419,21.928c8.499,2.266,16.31-5.103,14.193-13.386C511.959,206.307,505.639,202.39,499.746,203.876
		 M285.078,205.023c-35.15,5.717-43.47,50.64-11.908,64.299c3.628,1.57,6.906,2.735,16.72,5.94
		c19.517,6.375,25.021,11.593,24.149,22.901c-1.787,23.206-30.257,28.708-52.688,10.18c-3.969-3.277-6.191-2.315-10.335,4.48
		l-2.704,4.43l1.234,1.278c19.196,19.863,56.23,20.574,72.057,1.383c10.384-12.593,12.009-32.557,3.57-43.805
		c-5.239-6.981-12.458-10.981-30.605-16.954c-19.276-6.346-25.011-11.427-24.44-21.669c1.031-18.532,23.905-24.549,43.976-11.567
		c6.457,4.175,7.549,3.791,11.55-4.067l2.116-4.154l-0.798-0.852C318.768,208.104,299.522,202.672,285.078,205.023 M381.81,241.597
		c-23.992,2.434-37.801,18.102-38.582,43.77c-0.492,16.211,3.271,27.475,12.287,36.788c13.043,13.475,38.322,15.459,55.431,4.356
		c23.949-15.546,22.938-64.991-1.609-78.755C400.747,242.94,390.708,240.694,381.81,241.597 M577.526,241.745
		c-7.568,0.933-15.317,4.821-21.988,11.024c-1.501,1.397-2.774,2.484-2.828,2.417c-0.052-0.07-0.349-2.192-0.655-4.721
		c-0.886-7.319-0.992-7.408-8.849-7.416l-5.514-0.004v44.78v44.778l7.982-0.087l7.984-0.089l0.069-32.922l0.065-32.92l2.82-2.708
		c13.03-12.519,31.017-12.833,37.184-0.65c2.499,4.936,2.486,4.715,2.49,38.995l0.004,30.37h8.066h8.065l-0.008-28.395
		c-0.008-28.517-0.176-34.18-1.161-38.971C607.856,248.672,594.839,239.612,577.526,241.745 M667.402,241.591
		c-24.096,2.773-37.822,18.942-37.853,44.589c-0.026,21.384,7.924,36.072,23.522,43.479c15.848,7.521,40.523,3.916,52.107-7.612
		c2.498-2.483,2.547-1.847-0.453-5.587c-3.735-4.655-4.928-4.941-9.391-2.256c-8.38,5.044-16.034,7.211-23.818,6.747
		c-15.777-0.942-24.787-11.531-26.301-30.911l-0.174-2.222h30.56c36.222,0,32.079,0.665,32.762-5.268
		c0.183-1.605-0.433-8.927-0.977-11.591c-1.25-6.129-3.134-10.36-7.303-16.393C694.259,246.13,679.357,240.214,667.402,241.591
		 M756.619,241.593c-0.451,0.082-2.229,0.385-3.951,0.677c-8.211,1.395-16.5,5.581-23.699,11.963l-1.478,1.31l0.649,1.24
		c4.187,8.011,6.558,8.723,13.481,4.053c7.551-5.096,14.865-7.204,21.803-6.279c10.605,1.41,14.905,8.458,14.92,24.454l0.003,3.21
		l-3.21,0.011c-32.435,0.11-52.241,11.268-51.697,29.122c0.524,17.307,16.015,26.443,35.978,21.218
		c6.155-1.612,17.441-8.299,19.427-11.509c0.363-0.591,0.757-0.028,0.98,1.406c1.505,9.643,1.679,9.834,9.152,10.059l4.869,0.146
		l-0.119-32.223c-0.132-35.16-0.015-32.922-2.053-39.382c-2.975-9.417-10.104-16.104-19.911-18.68
		C769.054,241.677,759.119,241.155,756.619,241.593 M494.317,287.736l0.083,44.691l7.984,0.089l7.982,0.087v-44.778v-44.78H502.3
		h-8.067L494.317,287.736 M676.935,253.954c9.561,2.062,15.987,10.149,16.772,21.106l0.208,2.882h-24.12
		c-13.268,0-24.121-0.065-24.121-0.145c0-3.644,3.204-11.573,6.367-15.762C657.186,255.229,667.423,251.904,676.935,253.954
		 M393.331,255.063c12.168,3.312,18.412,14.368,18.408,32.589c-0.004,21.414-8.199,32.601-24.418,33.326
		c-17.939,0.8-27.724-10.9-27.722-33.16c0.002-19.331,7.183-30.796,20.808-33.236C382.963,254.124,390.98,254.422,393.331,255.063
		 M778.348,301.436v9.008l-2.721,2.598c-14.22,13.578-34.977,12.588-36.795-1.764c-1.344-10.59,10.034-17.5,30.296-18.399
		c2.627-0.116,4.836-0.266,4.91-0.332c0.077-0.065,1.078-0.119,2.222-0.119h2.088V301.436"/>
	<path id="path4" fill="#3C8EB9" d="M72.842,176.077c-7.856,0.67-10.269,0.938-14.694,1.631c-10.77,1.687-22.374,4.802-32.015,8.596
		c-4.036,1.588-13.774,5.93-14.396,6.418c-0.382,0.3,0.988,3.224,4.149,8.842c2.704,4.81,7.298,13.21,8.815,16.12
		c2.933,5.625,6.615,12.124,7.006,12.365c0.172,0.107,0.314,0.392,0.314,0.631c0,0.236,0.666,1.637,1.479,3.11
		c0.816,1.472,2.242,4.12,3.168,5.883c0.929,1.764,3.582,6.615,5.896,10.779c2.313,4.164,4.47,8.128,4.794,8.806
		c0.841,1.773,0.878,1.734,3.534-3.785c1.329-2.761,3.328-6.553,4.447-8.427c1.116-1.872,2.03-3.466,2.03-3.541
		c0-0.383,3.633-5.853,6.104-9.193c7.015-9.482,13.843-16.589,21.256-22.129c17.276-12.911,38.196-18.739,59.12-16.472
		c5.065,0.549,5.258,0.466,2.71-1.153C126.831,182.013,95.459,174.149,72.842,176.077 M163.066,283.044
		c-18.19,40.484-49.356,62.791-87.096,62.346c-11.218-0.136-11.469,0.072-4.549,3.792c14.271,7.669,27.241,12.031,42.574,14.312
		c23.364,3.481,49.87,0.162,73.249-9.17c3.546-1.414,13.914-6.08,14.253-6.413c0.054-0.053-1.145-2.375-2.664-5.157
		c-1.519-2.785-3.675-6.763-4.79-8.846c-1.115-2.084-2.487-4.602-3.05-5.597c-1.936-3.424-6.793-12.347-7.668-14.086
		c-0.482-0.955-1.168-2.03-1.525-2.385c-0.356-0.359-0.646-0.882-0.646-1.17c0-0.282-1.459-3.137-3.241-6.335
		c-1.784-3.199-3.945-7.152-4.803-8.782c-3.141-5.955-7.568-13.96-8.13-14.705l-0.579-0.768L163.066,283.044"/>
</g>
</svg>
