<?xml version="1.0" standalone="no"?>
<!DOCTYPE svg PUBLIC "-//W3C//DTD SVG 20010904//EN"
 "http://www.w3.org/TR/2001/REC-SVG-20010904/DTD/svg10.dtd">
<svg version="1.0" xmlns="http://www.w3.org/2000/svg"
 width="700.000000pt" height="700.000000pt" viewBox="0 0 700.000000 700.000000"
 preserveAspectRatio="xMidYMid meet">
<metadata>
Created by potrace 1.11, written by Peter Selinger 2001-2013
</metadata>
<g transform="translate(0.000000,700.000000) scale(0.100000,-0.100000)"
fill="#000000" stroke="none">
<path d="M3455 5720 c-116 -27 -138 -52 -307 -350 -42 -74 -331 -575 -349
-604 -10 -17 -24 -42 -32 -56 -7 -14 -67 -117 -132 -230 -65 -113 -186 -324
-270 -470 -84 -146 -163 -283 -176 -305 l-24 -40 40 31 c50 39 71 46 215 78
180 40 333 63 480 72 72 4 327 4 365 0 17 -2 57 -7 90 -10 33 -4 67 -9 75 -11
8 -2 33 -6 54 -10 154 -22 378 -111 536 -211 209 -132 430 -374 570 -622 17
-30 30 -42 47 -42 13 -1 152 -1 310 -1 168 -1 296 -5 306 -11 23 -12 33 -32
-129 248 -70 121 -138 239 -152 264 -13 25 -28 50 -32 55 -4 6 -21 35 -38 65
-16 30 -94 165 -172 300 -79 135 -154 265 -168 290 -14 25 -82 144 -153 265
-145 252 -452 783 -482 835 -187 332 -229 395 -286 433 -49 33 -133 49 -186
37z"/>
<path d="M2122 3593 c-25 -64 -15 -145 38 -293 5 -14 23 -65 41 -115 60 -171
162 -391 231 -501 20 -30 36 -91 68 -255 23 -117 44 -227 47 -244 12 -81 45
-189 61 -201 29 -23 316 -182 332 -185 8 -2 29 0 45 4 25 6 42 25 89 102 33
52 60 95 62 95 1 0 24 -9 51 -21 201 -88 449 -137 704 -140 l86 -1 84 -145
c46 -80 93 -162 104 -182 54 -98 117 -200 129 -211 8 -6 28 -15 45 -20 24 -7
37 -4 63 13 34 23 47 56 102 247 9 30 27 96 42 145 14 50 35 122 46 162 l20
71 66 17 c37 9 83 26 104 37 38 22 82 73 74 87 -3 4 -31 13 -63 20 -188 41
-495 134 -723 219 -394 147 -832 386 -1151 627 -118 90 -244 188 -254 199 -6
6 -44 40 -85 76 -102 88 -160 143 -308 293 -70 70 -129 127 -133 127 -4 0 -11
-12 -17 -27z"/>
<path d="M1856 3147 c-25 -45 -57 -100 -70 -122 -12 -22 -34 -60 -48 -85 -14
-25 -69 -121 -123 -215 -126 -219 -332 -580 -358 -625 -10 -19 -34 -60 -52
-90 -18 -30 -44 -75 -58 -100 -13 -25 -53 -94 -87 -153 -73 -127 -89 -175 -84
-246 7 -92 65 -172 154 -213 44 -21 57 -21 789 -22 549 -1 750 2 771 10 27 12
64 67 134 198 14 27 31 55 37 62 8 10 4 15 -18 20 -15 4 -68 30 -118 59 -49
28 -99 57 -110 63 -149 81 -210 129 -249 196 -25 43 -51 126 -62 192 -3 21
-17 93 -30 159 -14 66 -27 132 -29 148 -21 117 -40 174 -83 258 -28 52 -62
124 -77 159 -15 36 -37 88 -50 115 -35 79 -115 282 -115 293 0 33 -22 12 -64
-61z"/>
<path d="M5294 2826 c-6 -25 -61 -88 -190 -223 -100 -103 -183 -192 -184 -197
-1 -6 113 -94 315 -242 11 -8 79 -57 150 -110 153 -113 132 -97 365 -268 102
-74 190 -139 195 -143 6 -4 27 -21 48 -36 l37 -28 -17 43 c-18 47 -19 49 -120
223 -39 66 -81 140 -95 165 -14 25 -108 187 -208 360 -101 173 -191 329 -200
345 -9 17 -32 56 -49 88 -18 31 -34 57 -35 57 -1 0 -7 -15 -12 -34z"/>
<path d="M4810 1736 c0 -13 -63 -243 -101 -369 -12 -37 -19 -73 -16 -80 6 -15
1113 -16 1140 -1 13 7 -6 19 -86 53 -56 25 -129 57 -163 72 -34 15 -151 66
-260 114 -109 48 -239 105 -289 127 -173 78 -225 98 -225 84z"/>
</g>
</svg>
